<svg xmlns="http://www.w3.org/2000/svg" xmlns:xlink="http://www.w3.org/1999/xlink" width="24" height="24" viewBox="0 0 24 24">
  <defs>
    <clipPath id="clip-path">
      <rect id="Rectangle_149115" data-name="Rectangle 149115" width="24" height="24" fill="#fff" stroke="#333" stroke-width="1"/>
    </clipPath>
  </defs>
  <g id="Mask_Group_640" data-name="Mask Group 640" clip-path="url(#clip-path)">
    <path id="right-chevron" d="M21.4,11.95a1.917,1.917,0,0,1-.538,1.377q-3.981,4.248-7.958,8.5c-.6.638-1.2,1.281-1.8,1.92A.679.679,0,0,1,9.9,23.4a.778.778,0,0,1,.264-.677q1.677-1.778,3.355-3.566,3.146-3.341,6.287-6.686a.609.609,0,0,0,0-.946q-4.665-4.975-9.35-9.954c-.134-.144-.274-.278-.4-.427A.682.682,0,0,1,10.1.2a.655.655,0,0,1,.883-.053,1.951,1.951,0,0,1,.23.216Q16,5.449,20.787,10.539A2.031,2.031,0,0,1,21.4,11.95Z" transform="translate(-3.642 0.003)" fill="#fff"/>
  </g>
</svg>
